<svg xmlns="http://www.w3.org/2000/svg" width="512" height="512" viewBox="0 0 512.051 512.051">
  <defs>
    <style>
      .cls-1 {
        fill-rule: evenodd;
      }
    </style>
  </defs>
  <path id="G" class="cls-1" d="M256.5,481L61.99,368.5v-225L256.5,31,451.01,143.5v225Zm98.126-218.482a17.976,17.976,0,0,0-5.685-13.477,19.55,19.55,0,0,0-14.109-5.474q-38.185,0-66.821,4.773-50.82,8.564-50.818,30.041a18.955,18.955,0,0,0,5.194,13.055,18.547,18.547,0,0,0,14.46,6.458,20.988,20.988,0,0,0,8.7-1.965q24.144-10.809,56.714-13.337-8.285,24.71-25.549,37.623-16.287,12.213-37.763,12.213-20.919,0-28.216-8.844-6.88-8.424-6.879-31.867,0-46.183,31.305-85.773,21.478-27.232,34.113-27.233,11.93,0,26.321,7.931t18.6,7.932a20.022,20.022,0,0,0,19.935-19.513q0-13.194-27.8-24.848-23.445-9.823-37.06-9.826-22.321,0-41.834,16.424-27.795,23.446-45.483,61.206t-17.688,73.7q0,39.45,18.67,59.171t56.012,19.723q39.447,0,68.787-25.268,28.917-25.128,38.464-66.962a17.977,17.977,0,0,0,8.423-15.863h0Z" transform="translate(-0.474 0.026)"/>
</svg>
